<svg width="219" height="65" viewBox="0 0 219 65" fill="none" xmlns="http://www.w3.org/2000/svg">
<path d="M13.668 22.5107H25.144L26.4591 40.466H26.7758L35.1117 22.5107H45.7719L47.3822 40.466H47.6935L55.7449 22.5107H66.3997L50.1626 54.6289H39.8782L37.9995 34.9865H37.7472L28.531 54.6289H18.1231L13.668 22.5107Z" fill="#121212"/>
<path d="M63.6648 44.9857C63.6554 44.077 63.74 43.1696 63.917 42.2769L65.1731 35.5282C66.8639 26.7261 74.8348 21.7832 83.729 21.7832C90.9378 21.7832 97.964 24.7396 97.964 32.5151C97.9386 33.4632 97.8543 34.4091 97.7118 35.3477L96.4557 42.0551C94.7649 50.7953 86.6115 55.3151 77.8353 55.3151C70.852 55.2945 63.6648 52.8231 63.6648 44.9857Z" fill="#121212"/>
<path d="M104.708 22.4499H115.937L115.245 26.6085H115.374C118.444 23.4147 121.954 21.7275 126.469 21.7275C131.359 21.7275 135.626 24.5601 135.626 29.3791C135.617 30.3123 135.51 31.2421 135.309 32.155L131.299 54.5732H119.818L123.269 35.7667C123.329 35.2507 123.516 34.322 123.516 33.7029C123.516 31.7164 122.137 30.2098 119.566 30.2098C116.055 30.2098 114.241 33.223 113.661 36.4013L110.28 54.5423H98.8789L104.708 22.4499Z" fill="#121212"/>
<path d="M137.743 46.5537C137.734 45.6245 137.818 44.6966 137.995 43.7831C138.682 40.2281 139.31 36.6732 140.003 33.1131C141.253 26.2457 147.517 21.7621 154.608 21.7621C157.431 21.7621 161.006 22.794 162.66 25.1984H162.724L165.231 11.5771H176.599L168.698 54.551H157.555L158.247 50.6917H157.995C156.728 52.1042 155.164 53.2428 153.406 54.0325C151.648 54.8222 149.737 55.2451 147.797 55.2734C141.946 55.294 137.743 52.5233 137.743 46.5537Z" fill="#121212"/>
<path d="M180.63 22.449H191.854L190.915 27.8149H191.226C193.486 24.7966 197.812 21.9691 201.961 21.9691C203.098 21.9457 204.234 22.0461 205.348 22.2684L203.738 31.5556C202.032 31.3478 200.315 31.2273 198.596 31.1944C194.962 31.1944 190.319 32.2779 189.315 37.7006L186.245 54.5775H174.801L180.63 22.449Z" fill="#4BAF9D"/>
<g opacity="0.2">
<path d="M193.805 50.3366H192.297L192.485 49.3047H196.822L196.634 50.3366H195.126L194.369 54.4642H193.054L193.805 50.3366Z" fill="#121212"/>
<path d="M197.525 49.3252H199.135L199.725 52.0185L201.282 49.3252H202.93L201.985 54.4538H200.778L201.384 51.1775H201.347L199.854 53.7573H198.953L198.389 51.1775H198.362L197.761 54.4486H196.559L197.525 49.3252Z" fill="#121212"/>
</g>
</svg>
