<svg width="611" height="231" viewBox="0 0 611 231" fill="none" xmlns="http://www.w3.org/2000/svg">
<path d="M575.487 20C575.487 8.95431 566.533 2.5821e-06 555.487 2.5821e-06H504.917L476.689 0L447.095 2.5821e-06H20C8.95428 2.5821e-06 0 8.95431 0 20V211C0 222.046 8.95428 231 20 231H556.263C567.361 231 576.337 221.964 576.263 210.866L575.563 106.828C575.516 99.8091 579.152 93.2794 585.143 89.6224L611 73.8387L585.067 58.0089C579.117 54.3769 575.487 47.9089 575.487 40.9379V26.559V20Z" fill="#E7FBFD" fill-opacity="0.8"/>
</svg>
